<svg width="19" height="17" viewBox="0 0 19 17" fill="none" xmlns="http://www.w3.org/2000/svg">
<path d="M18.5294 5.26445C18.3126 4.74922 17.9524 4.37773 17.4876 4.19063L17.4813 4.18828C17.2698 4.10541 17.0445 4.06301 16.8173 4.06328H16.7923C15.7282 4.0793 14.6419 4.98359 14.0896 6.31367C13.6845 7.28633 13.638 8.33242 13.9653 9.11211C14.1817 9.62773 14.5427 9.99922 15.0095 10.1863L15.0146 10.1883C15.2261 10.2711 15.4514 10.3135 15.6786 10.3133C16.7528 10.3133 17.8505 9.40899 18.413 8.06133C18.813 7.08984 18.8571 6.04453 18.5294 5.26445ZM14.2778 11.0012C13.6642 10.6324 13.0841 10.2836 12.7052 9.65703C11.6599 7.92266 11.0286 6.87578 9.37354 6.87578C7.71846 6.87578 7.08564 7.92266 6.03799 9.65703C5.6583 10.2844 5.07705 10.6336 4.46143 11.0039C3.75557 11.4281 3.02627 11.8664 2.71143 12.7289C2.58903 13.0398 2.52737 13.3713 2.52979 13.7055C2.52979 15.1098 3.62354 16.2523 4.96729 16.2523C5.66064 16.2523 6.39854 16.0121 7.17939 15.7578C7.93018 15.5133 8.70635 15.2605 9.37744 15.2605C10.0485 15.2605 10.8228 15.5133 11.5708 15.7578C12.3501 16.0105 13.0845 16.2508 13.7798 16.2508C15.1216 16.2508 16.2134 15.1082 16.2134 13.7039C16.2145 13.3695 16.1515 13.038 16.0278 12.7273C15.713 11.8641 14.9833 11.4254 14.2778 11.0012ZM5.23291 5.50273C5.69775 6.08594 6.2876 6.40703 6.89385 6.40703C6.97661 6.40703 7.05926 6.40089 7.14111 6.38867C8.40557 6.20273 9.19346 4.65977 8.93486 2.87305C8.82666 2.12188 8.5376 1.42227 8.12354 0.903516C7.65947 0.321484 7.06885 0.000781268 6.46299 0.000781268C6.38023 0.000783921 6.29758 0.00692057 6.21572 0.0191407C4.95127 0.205078 4.16338 1.74805 4.42197 3.53477C4.52979 4.28477 4.81885 4.98359 5.23291 5.50273ZM11.6063 6.38867C11.6882 6.40089 11.7709 6.40703 11.8536 6.40703C12.4603 6.40703 13.0497 6.08594 13.5146 5.50273C13.9282 4.98359 14.2157 4.28477 14.3251 3.53398C14.5837 1.74805 13.7958 0.205078 12.5313 0.0183594C12.4495 0.0061393 12.3668 2.65273e-06 12.2841 0C11.6782 0.00078125 11.0876 0.321484 10.6235 0.903516C10.2095 1.42227 9.92041 2.12188 9.8126 2.87383C9.554 4.65977 10.3419 6.20273 11.6063 6.38867ZM3.73252 10.1883L3.73799 10.1863C4.204 9.99922 4.56455 9.62812 4.78057 9.11289C5.10791 8.33164 5.06182 7.28672 4.65752 6.31406C4.09775 4.96797 3.00049 4.06328 1.92744 4.06328C1.70021 4.06295 1.47494 4.10536 1.26338 4.18828L1.25791 4.19023C0.793067 4.37578 0.43252 4.74844 0.216505 5.26367C-0.110839 6.04492 -0.0647453 7.08984 0.339552 8.0625C0.899317 9.40859 1.99658 10.3133 3.06963 10.3133C3.29647 10.3135 3.52132 10.2711 3.73252 10.1883Z" fill="white"/>
</svg>
